# xmcd
#
# Track frame offsets: 
#        150
#        18117
#        34947
#        50861
#        66088
#        84657
#        102682
#
# Disc length: 1649 seconds
#
# Revision: 0
# Processed by: cddbd v1.5.2PL0 Copyright (c) Steve Scherf et al.
# Submitted via: ExactAudioCopyFreeDBPlugin 1.0
#
DISCID=5d066f07
DTITLE=Haley Cole - Haley Cole
DYEAR=2013
DGENRE=Country
TTITLE0=Shame On Me
TTITLE1=Satisfied
TTITLE2=Good Night Kiss
TTITLE3=Well Dressed Thieves
TTITLE4=Devil In Disguise (Feat. Drew Womack)
TTITLE5=Red, Black and Blues
TTITLE6=Winding Road
EXTD=
EXTT0=
EXTT1=
EXTT2=
EXTT3=
EXTT4=
EXTT5=
EXTT6=
PLAYORDER=
